HIERARCHY
ROOT Hips
{
	OFFSET -0.001795 -0.223333 0.028219
	CHANNELS 6 Xposition Yposition Zposition Zrotation Yrotation Xrotation 
	JOINT LeftUpLeg
	{
		OFFSET 0.069520 -0.091406 -0.006815
		CHANNELS 3 Zrotation Yrotation Xrotation
		JOINT LeftLeg
		{
			OFFSET 0.034277 -0.375199 -0.004496
			CHANNELS 3 Zrotation Yrotation Xrotation
			JOINT LeftFoot
			{
				OFFSET -0.013596 -0.397961 -0.043693
				CHANNELS 3 Zrotation Yrotation Xrotation
				JOINT LeftToe
				{
					OFFSET 0.026358 -0.055791 0.119288
					CHANNELS 3 Zrotation Yrotation Xrotation
					End Site
					{
						OFFSET 0.000000 0.000000 0.000000
					}
				}
			}
		}
	}
	JOINT RightUpLeg
	{
		OFFSET -0.067670 -0.090522 -0.004320
		CHANNELS 3 Zrotation Yrotation Xrotation
		JOINT RightLeg
		{
			OFFSET -0.038290 -0.382569 -0.008850
			CHANNELS 3 Zrotation Yrotation Xrotation
			JOINT RightFoot
			{
				OFFSET 0.015774 -0.398415 -0.042312
				CHANNELS 3 Zrotation Yrotation Xrotation
				JOINT RightToe
				{
					OFFSET -0.025372 -0.048144 0.123348
					CHANNELS 3 Zrotation Yrotation Xrotation
					End Site
					{
						OFFSET 0.000000 0.000000 0.000000
					}
				}
			}
		}
	}
	JOINT Spine
	{
		OFFSET -0.002533 0.108963 -0.026696
		CHANNELS 3 Zrotation Yrotation Xrotation
		JOINT Spine1
		{
			OFFSET 0.005487 0.135180 0.001092
			CHANNELS 3 Zrotation Yrotation Xrotation
			JOINT Spine2
			{
				OFFSET 0.001457 0.052922 0.025425
				CHANNELS 3 Zrotation Yrotation Xrotation
				JOINT Neck
				{
					OFFSET -0.002778 0.213870 -0.042857
					CHANNELS 3 Zrotation Yrotation Xrotation
					JOINT Head
					{
						OFFSET 0.005152 0.064970 0.051349
						CHANNELS 3 Zrotation Yrotation Xrotation
						End Site
						{
							OFFSET 0.000000 0.000000 0.000000
						}
					}
				}
				JOINT LeftShoulder
				{
					OFFSET 0.078845 0.121749 -0.034090
					CHANNELS 3 Zrotation Yrotation Xrotation
					JOINT LeftArm
					{
						OFFSET 0.090977 0.030469 -0.008868
						CHANNELS 3 Zrotation Yrotation Xrotation
						JOINT LeftForeArm
						{
							OFFSET 0.259612 -0.012772 -0.027456
							CHANNELS 3 Zrotation Yrotation Xrotation
							JOINT LeftHand
							{
								OFFSET 0.249234 0.008986 -0.001171
								CHANNELS 3 Zrotation Yrotation Xrotation
								End Site
								{
									OFFSET 0.000000 0.000000 0.000000
								}
							}
						}
					}
				}
				JOINT RightShoulder
				{
					OFFSET -0.081759 0.118833 -0.038615
					CHANNELS 3 Zrotation Yrotation Xrotation
					JOINT RightArm
					{
						OFFSET -0.096012 0.032551 -0.009143
						CHANNELS 3 Zrotation Yrotation Xrotation
						JOINT RightForeArm
						{
							OFFSET -0.253742 -0.013329 -0.021401
							CHANNELS 3 Zrotation Yrotation Xrotation
							JOINT RightHand
							{
								OFFSET -0.255298 0.007772 -0.005559
								CHANNELS 3 Zrotation Yrotation Xrotation
								End Site
								{
									OFFSET 0.000000 0.000000 0.000000
								}
							}
						}
					}
				}
			}
		}
	}
}
MOTION
Frames: 16
Frame Time: 0.050000
0.000000 0.897552 0.000000 0.001250 25.231045 -1.203976 -3.040942 0.525171 5.332525 1.009649 -2.152790 20.543689 8.351905 10.091461 -10.247339 0.000000 0.000000 0.000000 -5.359130 -1.573761 -36.570382 8.825600 -8.359155 43.731482 -7.459116 -17.442597 -1.520805 0.000000 0.000000 0.000000 4.455844 -0.769267 7.845826 -6.716911 2.630053 -22.476463 -4.209315 -8.912168 24.487395 5.080420 0.358573 -31.783811 0.000000 0.000000 0.000000 -4.695967 -10.124844 3.094659 -49.150838 -28.447918 3.437747 15.986120 -67.214170 -8.462662 0.000000 0.000000 0.000000 14.909148 -2.412994 -0.632625 64.180123 2.201340 -6.853436 11.014016 41.223161 7.376478 0.000000 0.000000 0.000000 
0.022806 0.908330 0.081671 -0.054217 24.371742 -0.223488 -0.316372 0.439312 9.834004 -2.158260 -1.036759 18.213479 3.729006 6.283595 -1.005243 0.000000 0.000000 0.000000 -5.051115 -1.392264 -37.405234 11.305169 -5.965771 28.563487 -10.219788 -20.907466 11.434159 0.000000 0.000000 0.000000 5.566037 -0.562523 5.032412 -7.904974 2.625134 -24.823068 -4.418306 -11.287921 25.842644 2.660781 0.929057 -29.430514 0.000000 0.000000 0.000000 0.139660 -11.250056 3.718175 -49.467783 -31.754542 4.887484 37.195144 -66.218501 -21.345453 0.000000 0.000000 0.000000 11.877570 -5.184298 -2.430815 65.771727 -2.732684 -9.748967 14.739999 36.886788 7.407809 0.000000 0.000000 0.000000 
0.045182 0.910858 0.162350 0.075430 20.194295 1.436499 1.942239 0.225217 9.414742 -5.742424 -0.402603 22.897703 3.280299 8.167104 4.077513 0.000000 0.000000 0.000000 -3.169829 0.078075 -36.338662 10.715978 -3.609170 18.531788 -9.089257 -18.580404 17.738880 0.000000 0.000000 0.000000 7.444779 -0.283102 0.989302 -7.745984 2.390540 -26.611749 -4.720559 -8.056719 28.723854 2.215248 1.417790 -31.314138 0.000000 0.000000 0.000000 3.365936 -12.090315 3.942315 -44.008223 -36.027171 5.332527 43.121551 -61.145492 -23.381381 0.000000 0.000000 0.000000 7.483705 -6.126314 -2.611946 66.963652 -6.478955 -11.772096 14.762062 33.434389 6.601137 0.000000 0.000000 0.000000 
0.064011 0.904700 0.236036 0.696259 18.807576 0.329785 4.048074 -0.028970 8.003362 -9.781399 0.307784 31.719154 3.927661 9.512108 4.669094 0.000000 0.000000 0.000000 -2.035305 0.687945 -35.510974 8.588895 -3.360779 23.109105 -8.363987 -17.558061 18.364172 0.000000 0.000000 0.000000 8.613879 -0.276063 0.765396 -9.320568 2.698531 -26.454401 -3.878160 -8.189353 28.070216 1.822086 1.384476 -30.095370 0.000000 0.000000 0.000000 7.010748 -12.891842 3.999113 -39.559443 -40.225531 6.018891 47.613463 -54.823821 -23.056591 0.000000 0.000000 0.000000 9.393632 -5.591012 -2.546440 65.020525 -7.605535 -12.338193 13.478665 32.150774 5.800072 0.000000 0.000000 0.000000 
0.079516 0.900489 0.296912 0.348720 18.368842 -2.007288 6.737947 -0.315413 4.484614 -13.564755 1.262941 41.578041 6.381373 13.580179 4.177755 0.000000 0.000000 0.000000 -0.371591 1.344467 -33.021916 5.644723 -3.190960 31.046827 -8.180655 -17.790033 13.259918 0.000000 0.000000 0.000000 8.874659 -0.713628 4.783850 -8.141617 2.416902 -27.651202 -4.099766 -8.467094 28.087361 2.479697 0.961488 -30.345486 0.000000 0.000000 0.000000 10.349786 -15.157610 4.262258 -29.829723 -43.576949 4.512628 49.176444 -43.846665 -18.937100 0.000000 0.000000 0.000000 12.960059 -5.345630 -2.654601 61.838634 -5.930432 -11.310687 9.149484 28.957100 3.994353 0.000000 0.000000 0.000000 
0.092044 0.909580 0.343770 0.223295 15.782237 -2.751579 7.187300 -0.314008 0.235259 -15.797807 2.706464 44.448051 8.355200 17.078755 4.070775 0.000000 0.000000 0.000000 0.741423 1.928536 -29.733384 4.726853 -2.740322 33.053780 -6.572784 -15.434866 9.391610 0.000000 0.000000 0.000000 9.353444 -0.914660 6.300202 -7.511881 2.398315 -26.683641 -3.469511 -9.372519 26.988230 1.206627 1.158852 -29.324870 0.000000 0.000000 0.000000 11.613840 -16.506254 4.218655 -20.598419 -43.576596 2.453000 45.362018 -33.989059 -12.898419 0.000000 0.000000 0.000000 13.655311 -2.906814 -1.920233 60.147213 -3.830446 -10.130306 5.708172 27.647180 2.752883 0.000000 0.000000 0.000000 
0.102424 0.924403 0.380621 0.792883 12.783703 -2.173102 6.258905 -0.371371 -4.393721 -14.001109 2.558545 43.643413 8.676199 17.507969 1.898936 0.000000 0.000000 0.000000 0.267422 1.935463 -26.441365 5.012164 -2.341545 31.527357 -5.357795 -13.382495 8.542742 0.000000 0.000000 0.000000 9.447643 -0.902443 6.268354 -7.432865 2.372122 -26.767941 -2.699836 -8.909998 27.325856 0.419909 1.274930 -28.344491 0.000000 0.000000 0.000000 14.461870 -16.492017 3.690634 -13.896434 -44.595964 0.922775 40.749753 -24.443129 -7.923257 0.000000 0.000000 0.000000 13.490424 -2.533356 -1.975349 60.839283 -2.771008 -9.852071 4.708483 27.660972 2.450231 0.000000 0.000000 0.000000 
0.111453 0.940973 0.410494 1.655097 8.701106 -1.581864 4.786942 -0.509185 -7.558584 -9.858560 1.571333 37.376133 8.224582 16.863739 2.017356 0.000000 0.000000 0.000000 -0.045100 1.925613 -23.132021 4.674928 -1.490217 28.560937 -3.808548 -10.810261 9.421796 0.000000 0.000000 0.000000 8.651366 -0.790236 6.029829 -6.268717 2.130853 -26.501674 -2.315035 -7.844039 27.466375 -0.612641 1.524147 -26.862687 0.000000 0.000000 0.000000 15.905343 -15.642263 3.111405 -8.132643 -45.325838 -0.454803 37.310510 -16.539020 -4.608789 0.000000 0.000000 0.000000 13.736399 -1.083805 -1.573107 61.097301 -1.882153 -9.567703 3.976852 27.549330 2.167060 0.000000 0.000000 0.000000 
0.119345 0.951937 0.435601 2.046711 5.375604 -0.758177 4.201867 -0.657834 -9.966876 -5.524494 0.442942 28.954327 7.263528 15.523757 4.163665 0.000000 0.000000 0.000000 -0.255913 1.854385 -20.764695 3.679436 -0.655413 24.989117 -1.775005 -7.027457 9.075154 0.000000 0.000000 0.000000 8.296802 -0.757775 5.985222 -5.582337 1.937429 -26.959663 -1.643256 -6.203648 27.640467 -1.473211 1.954034 -27.136356 0.000000 0.000000 0.000000 18.220790 -15.419742 2.670039 -4.476500 -44.807568 -1.376781 36.074564 -12.225603 -3.161458 0.000000 0.000000 0.000000 12.059682 -1.437456 -1.667636 62.307449 -1.544062 -9.648485 3.801553 28.392284 2.183370 0.000000 0.000000 0.000000 
0.125777 0.957259 0.457486 2.422556 2.218674 -0.292229 3.759894 -0.683328 -10.408801 -2.203879 -0.161447 19.260613 5.165134 12.190541 6.638610 0.000000 0.000000 0.000000 -0.701444 1.740796 -19.035456 3.438922 -0.298199 23.168249 -0.129806 -4.049945 9.149558 0.000000 0.000000 0.000000 7.616921 -0.767234 6.561204 -5.532303 1.887798 -27.333408 -0.987614 -6.358350 27.418646 -0.616290 1.101715 -27.056133 0.000000 0.000000 0.000000 20.303805 -14.686813 1.902304 -2.369601 -43.447897 -1.489999 34.991533 -9.116194 -1.978700 0.000000 0.000000 0.000000 9.717535 -0.663235 -1.377046 63.880968 -1.187861 -9.901033 3.557998 28.603607 1.982874 0.000000 0.000000 0.000000 
0.131300 0.957785 0.476657 2.268129 -0.449467 -0.298914 4.161324 -0.606821 -10.223103 -0.224385 -0.372482 12.507858 1.205094 5.676522 8.969066 0.000000 0.000000 0.000000 -0.670252 1.646078 -17.223429 2.839019 0.070830 22.152358 0.581881 -2.319018 7.760792 0.000000 0.000000 0.000000 6.823130 -0.773533 7.318088 -5.015627 1.752271 -27.568482 -0.466932 -6.125717 27.260827 -0.667045 0.912740 -27.469471 0.000000 0.000000 0.000000 20.691494 -15.433205 1.711706 1.245089 -42.487850 -2.166539 35.316735 -5.273769 -0.843948 0.000000 0.000000 0.000000 10.936849 -0.105097 -1.514885 62.961341 -1.801828 -10.141695 2.582372 29.558398 1.691783 0.000000 0.000000 0.000000 
0.136709 0.956457 0.492482 1.860481 -4.411900 0.188910 5.221769 -0.451184 -10.025160 -0.060411 -0.273473 10.490107 0.148313 4.157813 11.422230 0.000000 0.000000 0.000000 -0.879737 1.659402 -16.784615 3.166271 0.237520 22.249992 0.381417 -2.200646 5.777335 0.000000 0.000000 0.000000 6.714316 -0.730420 7.079063 -3.776953 1.445954 -27.582221 -0.967893 -4.345614 26.564417 0.067372 0.410532 -27.432623 0.000000 0.000000 0.000000 22.222066 -17.027579 1.640131 2.659415 -40.000264 -2.200768 35.078048 -2.373026 0.038287 0.000000 0.000000 0.000000 10.394956 0.961669 -1.098403 64.561265 -2.248299 -10.687422 0.033798 28.162451 0.954189 0.000000 0.000000 0.000000 
0.142928 0.954748 0.504581 1.314038 -7.616195 0.455068 5.851979 -0.319331 -9.522953 -0.273361 -0.179846 11.698419 1.310674 5.325502 9.637387 0.000000 0.000000 0.000000 -0.780306 1.664601 -16.204245 2.891096 0.537721 22.481958 0.379203 -1.593782 4.193526 0.000000 0.000000 0.000000 6.660580 -0.731703 7.273469 -3.697997 1.399509 -28.371379 -0.358200 -4.217232 27.363794 -0.018357 0.136609 -27.618016 0.000000 0.000000 0.000000 21.791043 -16.836367 1.328089 4.567335 -39.069820 -2.317161 37.653740 -1.293578 0.546557 0.000000 0.000000 0.000000 10.370616 1.879495 -0.980962 64.085717 -2.654424 -11.053511 0.035586 27.652052 0.801982 0.000000 0.000000 0.000000 
0.149843 0.954146 0.512913 1.253840 -10.696935 1.061453 5.897714 -0.260983 -9.534151 -1.262654 0.142660 12.917098 3.356200 8.495693 9.125756 0.000000 0.000000 0.000000 -1.374614 1.633094 -16.006868 3.128965 0.644283 22.132432 0.022834 -1.623312 2.573962 0.000000 0.000000 0.000000 6.366145 -0.657969 6.692928 -3.248840 1.261228 -27.697602 -0.055135 -3.372772 26.947419 0.707086 -0.412835 -27.947853 0.000000 0.000000 0.000000 22.314092 -17.063184 1.120969 5.349764 -38.505783 -2.255630 40.558899 -0.776575 0.942671 0.000000 0.000000 0.000000 9.975393 2.627516 -0.797887 64.858268 -2.827297 -11.354640 -2.049467 26.541831 0.227325 0.000000 0.000000 0.000000 
0.156972 0.954764 0.518231 1.201962 -12.728511 1.406287 5.785155 -0.235791 -9.575639 -1.684082 0.330861 13.618901 4.846073 10.910608 8.916759 0.000000 0.000000 0.000000 -2.042768 1.530339 -15.354064 3.422189 0.629908 21.311269 -0.655387 -2.912059 1.939772 0.000000 0.000000 0.000000 6.405982 -0.552031 5.447067 -3.164199 1.206882 -27.280426 -0.158502 -3.358697 26.640840 1.426618 -1.040594 -27.438032 0.000000 0.000000 0.000000 22.657650 -17.474281 0.958228 5.949454 -39.067136 -2.216168 42.167817 0.627114 1.632217 0.000000 0.000000 0.000000 9.826716 3.283042 -0.712601 64.779230 -3.167227 -11.570957 -1.847648 26.227582 0.164010 0.000000 0.000000 0.000000 
0.163482 0.955910 0.522195 1.231474 -14.623113 1.479305 5.527803 -0.247046 -10.939835 -1.815667 0.539316 16.309545 6.060625 12.884203 9.424125 0.000000 0.000000 0.000000 -2.908662 1.414205 -14.629704 3.847189 0.545159 20.132656 -0.935195 -3.964181 2.501839 0.000000 0.000000 0.000000 6.267386 -0.508250 5.070303 -3.150848 1.163125 -26.881421 -0.165831 -3.180737 26.389016 2.929040 -2.049091 -27.245908 0.000000 0.000000 0.000000 22.697314 -17.569766 0.825979 6.790348 -40.096792 -2.301693 44.435025 2.319519 2.495022 0.000000 0.000000 0.000000 10.117061 3.195510 -0.997990 64.498455 -2.726851 -11.262380 -2.296998 26.126386 -0.027154 0.000000 0.000000 0.000000 
